 <svg version="1.0" xmlns="http://www.w3.org/2000/svg" width="700.000000pt" height="700.000000pt" viewBox="0 0 700.000000 700.000000" preserveAspectRatio="xMidYMid meet">
<metadata>
Created by potrace 1.12, written by Peter Selinger 2001-2015
</metadata>
<g transform="translate(0.000000,700.000000) scale(0.100000,-0.100000)" fill="#000000" stroke="none">
<path d="M2625 6820 l-1180 -6 -83 -31 c-255 -97 -418 -261 -509 -510 l-28
-78 -3 -2685 c-2 -1894 1 -2698 8 -2730 6 -25 14 -56 17 -70 8 -38 77 -180
110 -228 50 -72 164 -182 234 -223 87 -52 208 -95 303 -108 108 -15 3943 -15
4052 0 173 24 311 94 440 223 101 101 148 176 198 315 l31 86 5 1840 c3 1232
2 1851 -5 1873 -8 23 -323 346 -1155 1178 -630 630 -1155 1150 -1168 1155 -13
5 -38 8 -55 7 -18 -2 -563 -5 -1212 -8z m1055 -1370 c5 -1038 5 -1056 25
-1090 12 -19 36 -43 55 -55 34 -20 52 -20 1090 -25 l1055 -5 3 -1700 c1 -1154
-1 -1716 -8 -1749 -37 -174 -193 -329 -368 -365 -70 -15 -3945 -16 -4022 -1
-137 26 -271 132 -337 267 l-38 78 0 2675 0 2675 38 78 c68 139 204 247 337
268 25 3 522 6 1105 5 l1060 -1 5 -1055z m1170 -15 c655 -655 822 -827 810
-835 -24 -15 -1643 -13 -1658 2 -9 9 -12 207 -12 828 0 449 3 820 7 823 3 4
11 7 17 7 6 0 382 -371 836 -825z"></path>
<path d="M3295 3620 c-118 -15 -206 -57 -324 -156 -55 -45 -122 -157 -157
-259 -24 -72 -24 -261 1 -335 63 -193 196 -327 391 -397 69 -24 278 -24 349 0
103 36 160 72 240 152 79 80 111 130 151 240 26 70 26 267 0 345 -62 188 -211
335 -396 393 -59 19 -179 26 -255 17z m282 -162 c186 -89 296 -295 262 -492
-7 -39 -16 -75 -21 -81 -4 -5 -8 -16 -8 -25 0 -20 -70 -121 -108 -157 -111
-103 -251 -147 -394 -123 -40 7 -79 16 -88 20 -8 4 -33 16 -54 26 -63 30 -172
142 -203 210 -84 184 -49 388 92 529 62 63 144 109 218 125 23 5 86 7 139 5
84 -4 106 -8 165 -37z"></path>
<path d="M2745 2033 c-149 -22 -325 -146 -403 -284 -65 -115 -74 -162 -76
-387 -1 -191 0 -204 18 -218 25 -18 57 -18 81 0 17 12 20 34 25 222 l7 209 34
70 c66 137 192 235 337 264 73 15 1148 15 1228 0 92 -17 162 -55 237 -130 114
-114 146 -214 146 -471 1 -119 4 -149 17 -162 19 -20 54 -20 80 -2 18 14 19
28 19 218 0 222 -5 249 -68 373 -39 77 -163 200 -237 237 -133 67 -82 63 -780
64 -349 1 -648 -1 -665 -3z"></path>
</g>
</svg>