 <svg version="1.0" xmlns="http://www.w3.org/2000/svg" width="700.000000pt" height="700.000000pt" viewBox="0 0 700.000000 700.000000" preserveAspectRatio="xMidYMid meet">
<metadata>
Created by potrace 1.12, written by Peter Selinger 2001-2015
</metadata>
<g transform="translate(0.000000,700.000000) scale(0.100000,-0.100000)" fill="#000000" stroke="none">
<path d="M2625 6820 l-1180 -6 -83 -31 c-255 -97 -418 -261 -509 -510 l-28
-78 -3 -2685 c-2 -1894 1 -2698 8 -2730 6 -25 14 -56 17 -70 8 -38 77 -180
110 -228 50 -72 164 -182 234 -223 87 -52 208 -95 303 -108 108 -15 3943 -15
4052 0 173 24 311 94 440 223 101 101 148 176 198 315 l31 86 5 1840 c3 1232
2 1851 -5 1873 -8 23 -323 346 -1155 1178 -630 630 -1155 1150 -1168 1155 -13
5 -38 8 -55 7 -18 -2 -563 -5 -1212 -8z m1055 -1370 c5 -1038 5 -1056 25
-1090 12 -19 36 -43 55 -55 34 -20 52 -20 1090 -25 l1055 -5 3 -1700 c1 -1154
-1 -1716 -8 -1749 -37 -174 -193 -329 -368 -365 -70 -15 -3945 -16 -4022 -1
-137 26 -271 132 -337 267 l-38 78 0 2675 0 2675 38 78 c68 139 204 247 337
268 25 3 522 6 1105 5 l1060 -1 5 -1055z m1170 -15 c655 -655 822 -827 810
-835 -24 -15 -1643 -13 -1658 2 -9 9 -12 207 -12 828 0 449 3 820 7 823 3 4
11 7 17 7 6 0 382 -371 836 -825z"></path>
<path d="M2944 3876 c-17 -13 -19 -30 -22 -190 -3 -118 -7 -178 -15 -185 -7
-5 -104 -11 -217 -13 -202 -3 -206 -4 -254 -30 -64 -36 -114 -90 -145 -158
-24 -52 -25 -67 -29 -250 -2 -110 -9 -200 -14 -207 -8 -10 -56 -13 -179 -13
-139 0 -170 -3 -183 -16 -20 -19 -20 -54 -2 -80 13 -17 29 -19 173 -22 87 -1
168 -5 181 -7 l22 -5 0 -253 c0 -183 -3 -256 -12 -265 -8 -8 -63 -12 -179 -12
-139 0 -170 -3 -183 -16 -20 -19 -20 -54 -2 -80 13 -17 29 -19 173 -22 87 -1
168 -4 179 -7 21 -5 22 -9 26 -272 l4 -268 28 -57 c31 -64 92 -125 158 -159
40 -21 59 -23 245 -27 134 -3 206 -8 212 -16 5 -6 11 -86 13 -177 3 -188 8
-202 67 -197 54 5 61 27 61 209 0 107 4 159 12 167 9 9 94 12 319 12 266 0
310 -2 323 -16 13 -13 16 -43 16 -175 0 -92 4 -169 10 -180 7 -13 21 -19 43
-19 61 0 62 2 65 192 2 95 8 178 13 184 7 8 74 13 212 16 201 3 202 3 254 32
67 37 112 82 149 149 l29 52 3 265 c3 160 8 270 14 278 8 9 55 12 172 12 184
0 206 7 206 64 0 54 -8 56 -195 56 -120 0 -175 4 -183 12 -17 17 -17 499 0
516 8 8 60 12 168 12 178 0 203 7 208 58 6 59 -2 62 -187 62 -119 0 -172 4
-183 13 -14 10 -17 44 -21 212 -3 176 -7 205 -25 245 -30 65 -82 121 -143 155
-54 30 -54 30 -261 35 -118 3 -211 9 -217 15 -5 6 -11 88 -13 183 -3 160 -5
175 -23 188 -22 17 -74 12 -87 -9 -4 -6 -8 -87 -8 -178 0 -148 -2 -168 -18
-182 -16 -15 -53 -17 -318 -17 -225 0 -304 3 -316 13 -14 10 -17 39 -20 185
-3 158 -5 175 -22 188 -25 18 -57 18 -82 0z m1314 -527 c52 -26 91 -73 108
-129 9 -32 13 -238 13 -841 0 -896 2 -869 -69 -938 -28 -27 -53 -41 -92 -49
-72 -16 -1613 -16 -1675 0 -57 14 -129 78 -143 126 -11 41 -14 1638 -3 1705 7
47 76 122 125 135 19 6 374 10 863 11 821 0 830 0 873 -20z"></path>
<path d="M2939 2813 c-11 -13 -15 -95 -17 -412 -3 -422 0 -464 41 -475 12 -3
205 -6 428 -6 334 0 409 2 425 14 18 14 19 30 19 439 0 345 -3 427 -14 440
-12 15 -55 17 -441 17 -385 0 -429 -2 -441 -17z m771 -122 c6 -12 10 -131 10
-316 0 -185 -4 -304 -10 -316 -10 -18 -24 -19 -323 -19 -230 0 -316 3 -325 12
-9 9 -12 96 -12 328 0 174 3 320 7 323 3 4 149 7 324 7 304 0 319 -1 329 -19z"></path>
</g>
</svg>