 <svg version="1.0" xmlns="http://www.w3.org/2000/svg" width="700.000000pt" height="700.000000pt" viewBox="0 0 700.000000 700.000000" preserveAspectRatio="xMidYMid meet">
<metadata>
Created by potrace 1.12, written by Peter Selinger 2001-2015
</metadata>
<g transform="translate(0.000000,700.000000) scale(0.100000,-0.100000)" fill="#000000" stroke="none">
<path d="M2625 6820 l-1180 -6 -83 -31 c-255 -97 -418 -261 -509 -510 l-28
-78 -3 -2685 c-2 -1894 1 -2698 8 -2730 6 -25 14 -56 17 -70 8 -38 77 -180
110 -228 50 -72 164 -182 234 -223 87 -52 208 -95 303 -108 108 -15 3943 -15
4052 0 173 24 311 94 440 223 101 101 148 176 198 315 l31 86 5 1840 c3 1232
2 1851 -5 1873 -8 23 -323 346 -1155 1178 -630 630 -1155 1150 -1168 1155 -13
5 -38 8 -55 7 -18 -2 -563 -5 -1212 -8z m1055 -1370 c5 -1038 5 -1056 25
-1090 12 -19 36 -43 55 -55 34 -20 52 -20 1090 -25 l1055 -5 3 -1700 c1 -1154
-1 -1716 -8 -1749 -37 -174 -193 -329 -368 -365 -70 -15 -3945 -16 -4022 -1
-137 26 -271 132 -337 267 l-38 78 0 2675 0 2675 38 78 c68 139 204 247 337
268 25 3 522 6 1105 5 l1060 -1 5 -1055z m1170 -15 c655 -655 822 -827 810
-835 -24 -15 -1643 -13 -1658 2 -9 9 -12 207 -12 828 0 449 3 820 7 823 3 4
11 7 17 7 6 0 382 -371 836 -825z"></path>
<path d="M2245 3723 c-86 -20 -170 -87 -211 -170 l-29 -56 0 -356 0 -356 30
-54 c37 -67 110 -131 178 -157 50 -18 88 -19 1177 -19 l1125 0 57 28 c68 34
116 80 154 150 l29 52 0 360 c0 356 0 360 -23 403 -33 63 -84 114 -144 148
l-53 29 -1135 1 c-624 1 -1144 0 -1155 -3z m2293 -146 c23 -15 54 -46 69 -69
l28 -41 3 -291 c4 -343 -1 -378 -59 -436 -22 -22 -57 -45 -77 -52 -52 -18
-2093 -24 -2196 -7 -59 10 -75 17 -112 51 -69 63 -74 93 -74 410 0 172 4 286
12 316 14 55 76 122 128 139 25 8 347 11 1136 10 l1100 -2 42 -28z"></path>
<path d="M2546 3184 c-20 -19 -21 -54 -2 -79 18 -25 74 -25 93 1 16 21 10 73
-10 86 -20 13 -65 9 -81 -8z"></path>
<path d="M2260 2140 c-90 -14 -174 -78 -226 -173 l-29 -52 0 -355 0 -355 33
-62 c35 -64 78 -104 152 -144 l45 -24 1145 0 1145 0 57 28 c65 32 118 86 150
154 23 47 23 55 23 403 0 343 -1 357 -22 400 -27 58 -93 124 -158 158 l-50 27
-1110 1 c-610 1 -1130 -2 -1155 -6z m2291 -155 c81 -58 84 -69 87 -407 2 -195
-1 -312 -8 -339 -16 -57 -83 -122 -142 -137 -67 -17 -2149 -17 -2216 0 -62 15
-125 78 -140 140 -17 66 -16 572 1 635 14 55 72 118 120 132 19 6 485 9 1144
8 l1111 -2 43 -30z"></path>
<path d="M2550 1600 c-39 -39 -16 -100 38 -100 38 0 51 11 58 47 12 59 -54 95
-96 53z"></path>
</g>
</svg>