 <svg version="1.0" xmlns="http://www.w3.org/2000/svg" width="700.000000pt" height="700.000000pt" viewBox="0 0 700.000000 700.000000" preserveAspectRatio="xMidYMid meet">
<metadata>
Created by potrace 1.12, written by Peter Selinger 2001-2015
</metadata>
<g transform="translate(0.000000,700.000000) scale(0.100000,-0.100000)" fill="#000000" stroke="none">
<path d="M5719 5115 c-3 -2 -39 -9 -80 -15 -69 -10 -96 -17 -174 -43 -181 -61
-322 -183 -419 -360 -49 -88 -98 -250 -115 -377 -18 -129 -20 -187 -8 -199 17
-17 321 -15 336 2 6 8 15 54 20 103 5 49 14 103 19 119 5 17 16 50 23 75 72
246 269 390 530 390 255 -1 472 -143 551 -360 64 -175 45 -342 -57 -500 -69
-108 -181 -209 -310 -280 -33 -18 -64 -36 -70 -40 -5 -4 -37 -22 -70 -40 -33
-18 -73 -41 -90 -52 -16 -10 -39 -22 -50 -28 -11 -5 -42 -23 -70 -40 -27 -16
-57 -33 -65 -37 -100 -45 -334 -220 -436 -325 -206 -210 -296 -432 -331 -812
-9 -87 -8 -88 15 -97 34 -13 1878 -12 1903 1 17 10 19 23 19 161 0 84 -5 159
-10 170 -10 19 -29 19 -765 19 -861 0 -780 -11 -746 97 27 83 50 128 99 196
77 104 246 231 451 339 41 22 98 52 126 68 28 16 87 48 131 71 101 54 122 66
159 89 17 11 39 24 50 29 37 16 200 148 256 207 56 60 139 165 139 178 0 3 11
23 23 44 13 20 26 46 30 57 3 11 15 47 27 80 60 173 53 410 -17 585 -59 147
-139 250 -268 345 -170 126 -369 185 -626 185 -69 0 -128 -2 -130 -5z"></path>
<path d="M1000 4404 c-8 -2 -55 -11 -105 -18 -203 -32 -341 -97 -448 -211 -91
-95 -154 -247 -159 -382 l-3 -78 156 -3 c175 -3 174 -3 187 69 5 24 21 69 37
101 70 143 221 213 460 213 249 -1 411 -78 465 -221 25 -68 28 -222 5 -277
-37 -89 -156 -141 -390 -168 -232 -27 -295 -38 -478 -80 -365 -85 -517 -238
-542 -544 -6 -81 4 -206 24 -280 16 -63 67 -158 113 -210 119 -135 292 -209
521 -222 250 -14 483 70 704 255 30 25 59 42 67 39 8 -3 17 -25 21 -49 14 -83
74 -171 140 -205 49 -26 126 -43 195 -43 64 0 208 25 222 38 8 8 13 230 6 238
-3 2 -34 6 -69 9 -79 5 -122 26 -154 73 l-25 37 0 661 c0 784 -4 833 -83 967
-84 142 -253 238 -487 276 -77 13 -353 24 -380 15z m608 -1359 c4 -252 -6
-298 -90 -413 -49 -67 -125 -126 -213 -167 -99 -47 -126 -55 -245 -71 -180
-25 -330 9 -425 97 -111 102 -136 271 -61 415 36 69 141 143 246 173 25 7 56
18 70 23 14 6 48 14 75 18 28 5 91 16 140 25 50 9 117 20 150 25 104 14 208
37 265 58 90 32 85 43 88 -183z"></path>
<path d="M2510 3500 l0 -140 990 0 990 0 0 140 0 140 -990 0 -990 0 0 -140z"></path>
<path d="M2510 2791 c0 -84 4 -141 10 -143 5 -1 451 -2 990 0 l980 2 0 140 0
140 -990 0 -990 0 0 -139z"></path>
</g>
</svg>